<?xml version="1.0" encoding="UTF-8"?>
<svg id="Layer_2" data-name="Layer 2" xmlns="http://www.w3.org/2000/svg" viewBox="0 0 950.8 317.94">
    <defs>
        <style>
            .cls-1 {
                fill: #ed0101;
            }

            .cls-2 {
                fill: #ffffff;
            }

            .cls-3 {
                fill: #ffffff;
            }
        </style>
    </defs>
    <g id="Layer_1-2" data-name="Layer 1">
        <g>
            <g>
                <path class="cls-3"
                    d="M440.94,214.48c17.65,0,17.65,24.8,0,24.8h-70.82c-5.36,0-9.61-4.24-9.61-9.61,0-1.79.67-3.57,1.56-5.14l51.38-77.74h-38.42c-17.65,0-17.65-24.8,0-24.8h68.58c5.14,0,9.38,4.24,9.38,9.61,0,1.79-.45,3.57-1.56,5.14l-51.16,77.74h40.66Z" />
                <path class="cls-3"
                    d="M579.22,178.07v49.37c0,9.16-5.81,13.85-13.18,13.85s-13.4-4.69-13.4-13.85v-46.91c0-22.79-15.41-34.4-31.72-34.4s-32.17,11.39-32.17,34.63c0,19.21,11.62,32.39,31.95,32.39h10.28c8.49,0,12.73,6.26,12.73,13.18s-4.24,12.96-12.73,12.96h-10.28c-36.19,0-59.42-25.24-59.42-58.53,0-40.88,29.27-60.76,60.99-60.76s56.97,20.55,56.97,58.08Z" />
                <path class="cls-3"
                    d="M670.37,134.95c0,6.93-4.24,13.18-12.51,13.18h-8.27c-13.85,0-25.47,8.04-25.47,27.03v52.28c0,9.16-5.81,13.85-13.18,13.85s-13.4-4.69-13.4-13.85v-54.73c0-35.07,24.8-50.71,52.05-50.71h8.27c8.27,0,12.51,6.03,12.51,12.96Z" />
                <path class="cls-3"
                    d="M680.87,92.51c0-8.71,6.93-15.86,15.86-15.86s15.86,7.15,15.86,15.86-6.7,15.86-15.86,15.86-15.86-7.15-15.86-15.86ZM710.14,133.83v93.6c0,9.16-5.81,13.85-13.4,13.85s-13.18-4.69-13.18-13.85v-93.6c0-9.16,5.81-13.85,13.18-13.85s13.4,4.69,13.4,13.85Z" />
                <path class="cls-3"
                    d="M834.8,133.83v54.73c0,35.07-25.47,52.72-52.72,52.72s-52.72-17.65-52.72-52.72v-54.73c0-9.16,5.81-13.85,13.4-13.85s13.18,4.69,13.18,13.85v52.28c0,18.99,12.06,29.04,26.14,29.04s26.14-10.05,26.14-29.04v-52.28c0-9.16,5.81-13.85,13.18-13.85s13.4,4.69,13.4,13.85Z" />
                <path class="cls-3"
                    d="M936.89,241.29c-4.02,0-8.04-1.56-10.72-5.36l-25.47-33.96c-.89-.89-2.46-.89-3.13,0l-24.8,33.73c-2.91,4.02-6.7,5.58-10.28,5.58-9.61,0-18.99-10.95-11.17-21.22l30.16-41.11c.67-.67.67-1.79,0-2.46l-26.36-35.07c-8.71-11.62.89-21.22,10.72-21.22,4.02,0,8.04,1.56,10.72,5.14l21.89,29.04c.67,1.12,2.23,1.12,3.13,0l21.67-29.04c2.9-3.8,6.48-5.36,10.28-5.36,9.61,0,18.77,10.95,10.95,21.22l-26.81,36.41c-.45.67-.45,1.79,0,2.46l29.71,39.77c8.71,11.62-.89,21.45-10.5,21.45Z" />
            </g>
            <g>
                <path class="cls-2"
                    d="M234.86,47.15l-12.64-11.18c5.02-15.32,25.52,8.87,29.34,7.94,9.42-11.48,21.18-22.45,30.15-34.17,2.41-3.16,2.1-8.63,7.49-9.61,9.54-1.71,25.39,13.89,18.19,21.95-1.77,1.99-4.57,2.39-6.54,4.35-10.37,10.48-19.63,23.62-29.7,34.54,4.72,8.71,24.39,19.27,12,28.88l-13.1-11.59-35.18-31.11Z" />
                <polygon class="cls-2"
                    points="116.33 143.32 116.33 129.97 163.68 129.97 175.86 116.06 90.54 116.06 116.33 143.32" />
                <polygon class="cls-2"
                    points="193.36 210.87 153.49 210.87 141.3 224.78 219.16 224.78 193.36 197.51 193.36 210.87" />
                <polygon class="cls-2" points="107.64 225.33 90.99 225.33 186.68 116.06 203.44 116.06 107.64 225.33" />
                <polygon class="cls-2" points="225.75 116.06 130 225.33 112.36 225.33 208.71 116.06 225.75 116.06" />
                <g>
                    <path class="cls-2"
                        d="M82.34,282.39l-19.88,22.7c-2.76,2.74-28.48,9.75-29.64,8.73-1.17-1.02,2.25-27.45,4.59-30.56l25.89-29.57c5.54,10.28,11.9,19.86,19.05,28.69Z" />
                    <path class="cls-2"
                        d="M277.12,313.82c-1.16,1.02-26.87-5.99-29.63-8.73l-20.93-23.88c1.62-1.85,3.21-3.75,4.8-5.71,5.2-6.42,10.37-13.68,15.26-21.83l25.92,29.59c2.33,3.1,5.76,29.54,4.59,30.56Z" />
                    <path class="cls-2"
                        d="M20.01.13c5.39.98,5.08,6.45,7.5,9.61,8.95,11.72,20.71,22.69,30.13,34.17,3.82.94,24.32-23.25,29.34-7.94l-12.64,11.18-35.17,31.1-13.12,11.6c-12.38-9.61,7.28-20.17,12-28.88-10.07-10.91-19.32-24.06-29.7-34.54-1.96-1.96-4.77-2.36-6.54-4.35C-5.38,14.02,10.47-1.58,20.01.13Z" />
                </g>
                <path class="cls-1"
                    d="M247.41,78.97s-103.16-44.75-191.72,5.28c0,0-34.6,170.55,96.69,233.69,0,0,146.53-59.75,95.04-238.96ZM208.68,255.59c-20.71,26-45.22,40.57-56.12,46.19-46.24-24.55-74.29-67.1-83.41-126.57-5.57-36.23-2.23-68.26-.3-81.55,24.22-12.33,51.87-18.59,82.31-18.59,38.38,0,71,10.08,84.22,14.81,17.33,65.99,8.36,121.7-26.69,165.71Z" />
            </g>
        </g>
    </g>
</svg>