<svg xmlns="http://www.w3.org/2000/svg" xmlns:xlink="http://www.w3.org/1999/xlink" width="500" zoomAndPan="magnify"
    viewBox="0 0 375 374.999991" height="500" preserveAspectRatio="xMidYMid meet" version="1.0">
    <defs>
        <clipPath id="17873592d8">
            <path d="M 251 36.265625 L 336 36.265625 L 336 123 L 251 123 Z M 251 36.265625 " clip-rule="nonzero" />
        </clipPath>
        <clipPath id="6626c12c22">
            <path d="M 38.714844 36.265625 L 123 36.265625 L 123 123 L 38.714844 123 Z M 38.714844 36.265625 "
                clip-rule="nonzero" />
        </clipPath>
        <clipPath id="80272b4844">
            <path d="M 88 94 L 287 94 L 287 338.515625 L 88 338.515625 Z M 88 94 " clip-rule="nonzero" />
        </clipPath>
    </defs>
    <rect x="-37.5" width="450" fill="#ffffff" y="-37.499999" height="449.999989" fill-opacity="1" />
    <rect x="-37.5" width="450" fill="#ffffff" y="-37.499999" height="449.999989" fill-opacity="1" />
    <g clip-path="url(#17873592d8)">
        <path fill="#3233de"
            d="M 263.816406 81.421875 L 251.703125 70.714844 C 256.515625 56.042969 276.160156 79.210938 279.820312 78.320312 C 288.847656 67.324219 300.121094 56.816406 308.714844 45.59375 C 311.027344 42.566406 310.730469 37.328125 315.894531 36.390625 C 325.035156 34.75 340.226562 49.691406 333.328125 57.410156 C 331.628906 59.316406 328.945312 59.699219 327.058594 61.578125 C 317.121094 71.613281 308.246094 84.199219 298.597656 94.65625 C 303.121094 103 321.96875 113.113281 310.097656 122.316406 L 297.542969 111.214844 L 263.828125 81.421875 Z M 263.816406 81.421875 "
            fill-opacity="1" fill-rule="nonzero" />
    </g>
    <path fill="#3233de"
        d="M 150.222656 173.527344 L 150.222656 160.742188 L 195.601562 160.742188 L 207.273438 147.417969 L 125.507812 147.417969 Z M 150.222656 173.527344 "
        fill-opacity="1" fill-rule="nonzero" />
    <path fill="#3233de"
        d="M 224.046875 238.222656 L 185.835938 238.222656 L 174.152344 251.542969 L 248.769531 251.542969 L 224.046875 225.425781 Z M 224.046875 238.222656 "
        fill-opacity="1" fill-rule="nonzero" />
    <path fill="#3233de"
        d="M 141.894531 252.070312 L 125.9375 252.070312 L 217.644531 147.417969 L 233.707031 147.417969 Z M 141.894531 252.070312 "
        fill-opacity="1" fill-rule="nonzero" />
    <path fill="#3233de"
        d="M 255.085938 147.417969 L 163.324219 252.070312 L 146.417969 252.070312 L 238.757812 147.417969 Z M 255.085938 147.417969 "
        fill-opacity="1" fill-rule="nonzero" />
    <path fill="#3233de"
        d="M 117.648438 306.71875 L 98.597656 328.457031 C 95.953125 331.082031 71.304688 337.796875 70.191406 336.820312 C 69.070312 335.84375 72.347656 310.53125 74.589844 307.550781 L 99.402344 279.230469 C 104.710938 289.078125 110.804688 298.25 117.660156 306.707031 Z M 117.648438 306.71875 "
        fill-opacity="1" fill-rule="nonzero" />
    <path fill="#3233de"
        d="M 304.316406 336.820312 C 303.207031 337.796875 278.566406 331.082031 275.921875 328.457031 L 255.863281 305.585938 C 257.414062 303.816406 258.9375 301.996094 260.464844 300.117188 C 265.445312 293.96875 270.402344 287.015625 275.085938 279.210938 L 299.929688 307.550781 C 302.160156 310.519531 305.449219 335.84375 304.328125 336.820312 Z M 304.316406 336.820312 "
        fill-opacity="1" fill-rule="nonzero" />
    <g clip-path="url(#6626c12c22)">
        <path fill="#3233de"
            d="M 57.914062 36.390625 C 63.082031 37.328125 62.78125 42.566406 65.101562 45.59375 C 73.679688 56.816406 84.949219 67.324219 93.976562 78.320312 C 97.636719 79.21875 117.285156 56.050781 122.097656 70.714844 L 109.980469 81.421875 L 76.277344 111.207031 L 63.703125 122.316406 C 51.839844 113.113281 70.679688 103 75.203125 94.65625 C 65.554688 84.207031 56.6875 71.613281 46.742188 61.578125 C 44.863281 59.699219 42.167969 59.316406 40.472656 57.410156 C 33.582031 49.691406 48.773438 34.75 57.914062 36.390625 Z M 57.914062 36.390625 "
            fill-opacity="1" fill-rule="nonzero" />
    </g>
    <g clip-path="url(#80272b4844)">
        <path fill="#ed0101"
            d="M 275.84375 111.898438 C 275.84375 111.898438 176.980469 69.039062 92.109375 116.953125 C 92.109375 116.953125 58.949219 280.292969 184.773438 340.765625 C 184.773438 340.765625 325.199219 283.539062 275.855469 111.90625 Z M 238.726562 281.050781 C 218.878906 305.953125 195.390625 319.90625 184.945312 325.289062 C 140.628906 301.777344 113.75 261.023438 105.007812 204.066406 C 99.671875 169.371094 102.871094 138.695312 104.722656 125.964844 C 127.933594 114.15625 154.429688 108.160156 183.601562 108.160156 C 220.382812 108.160156 251.644531 117.816406 264.316406 122.34375 C 280.925781 185.546875 272.328125 238.902344 238.738281 281.050781 Z M 238.726562 281.050781 "
            fill-opacity="1" fill-rule="nonzero" />
    </g>
</svg>